<svg xmlns="http://www.w3.org/2000/svg" viewBox="0 0 400 400">
<ellipse cx="200" cy="360" rx="140" ry="13" fill="#2B2D42" opacity="0.08"/>
<defs>
<g id="jaw">
<g fill="#FFFFFF" stroke="#D9E1EC" stroke-width="3">
<rect x="46" y="160" width="26" height="46" rx="11"/>
<rect x="73" y="152" width="28" height="50" rx="11"/>
<path d="M101 146 h30 v44 q0 12 -15 24 q-15 -12 -15 -24z"/>
<rect x="131" y="142" width="32" height="56" rx="12"/>
<rect x="162" y="140" width="38" height="64" rx="13"/>
<rect x="200" y="140" width="38" height="64" rx="13"/>
<rect x="237" y="142" width="32" height="56" rx="12"/>
<path d="M269 146 h30 v44 q0 12 -15 24 q-15 -12 -15 -24z"/>
<rect x="299" y="152" width="28" height="50" rx="11"/>
<rect x="328" y="160" width="26" height="46" rx="11"/>
</g>
<path d="M34 128 C110 88 290 88 366 128 L366 178 C300 150 100 150 34 178 Z" fill="#F59AAE"/>
<path d="M34 128 C110 88 290 88 366 128 L366 142 C290 106 110 106 34 142 Z" fill="#E57A93"/>
</g>
</defs>
<ellipse cx="200" cy="210" rx="150" ry="34" fill="#7A2E3A"/>
<g>
<use href="#jaw" transform="translate(0 420) scale(1 -1)"/>
<animateTransform attributeName="transform" type="translate" values="0 0;0 18;0 0" dur="2s" repeatCount="indefinite" calcMode="spline" keySplines="0.45 0 0.55 1;0.45 0 0.55 1"/>
</g>
<use href="#jaw"/>
<path d="M172 160 q-4 16 0 30" stroke="#EAF2FF" stroke-width="6" stroke-linecap="round" fill="none"/>
<path d="M210 160 q-4 16 0 30" stroke="#EAF2FF" stroke-width="6" stroke-linecap="round" fill="none"/>
<g transform="translate(330 70) scale(1)"><path d="M0 -20 C3 -4 4 -3 20 0 C4 3 3 4 0 20 C-3 4 -4 3 -20 0 C-4 -3 -3 -4 0 -20Z" fill="#FFD166"><animateTransform attributeName="transform" type="scale" values="0.2;1;0.2" dur="1.8s" begin="0s" repeatCount="indefinite" calcMode="spline" keySplines="0.45 0 0.55 1;0.45 0 0.55 1"/></path></g>
<g transform="translate(64 300) scale(0.8)"><path d="M0 -20 C3 -4 4 -3 20 0 C4 3 3 4 0 20 C-3 4 -4 3 -20 0 C-4 -3 -3 -4 0 -20Z" fill="#FFD166"><animateTransform attributeName="transform" type="scale" values="0.2;1;0.2" dur="1.8s" begin="0.6s" repeatCount="indefinite" calcMode="spline" keySplines="0.45 0 0.55 1;0.45 0 0.55 1"/></path></g>
<g transform="translate(352 312) scale(0.6)"><path d="M0 -20 C3 -4 4 -3 20 0 C4 3 3 4 0 20 C-3 4 -4 3 -20 0 C-4 -3 -3 -4 0 -20Z" fill="#7BDFF2"><animateTransform attributeName="transform" type="scale" values="0.2;1;0.2" dur="1.8s" begin="1.1s" repeatCount="indefinite" calcMode="spline" keySplines="0.45 0 0.55 1;0.45 0 0.55 1"/></path></g>
</svg>
